<?xml version="1.0" encoding="UTF-8"?>
<svg width="760px" height="649px" viewBox="0 0 760 649" version="1.1" xmlns="http://www.w3.org/2000/svg" xmlns:xlink="http://www.w3.org/1999/xlink">
    <!-- Generator: Sketch 52.6 (67491) - http://www.bohemiancoding.com/sketch -->
    <title>Slice 1</title>
    <desc>Created with Sketch.</desc>
    <g id="Page-1" stroke="none" stroke-width="1" fill="none" fill-rule="evenodd">
        <g id="class" transform="translate(1.000000, 1.000000)">
            <g id="Group" transform="translate(407.000000, 167.000000)" fill="#C0C0C0" opacity="0.2">
                <rect id="Rectangle" x="0" y="0" width="140.8" height="15"></rect>
            </g>
            <g id="Group" transform="translate(407.000000, 181.000000)" fill="#C0C0C0" opacity="0.2">
                <rect id="Rectangle" x="0" y="0" width="352" height="266"></rect>
            </g>
            <g id="Group" transform="translate(400.000000, 175.000000)" fill="#FFFFFF">
                <rect id="Rectangle" x="0" y="0" width="352" height="265"></rect>
            </g>
            <g id="Group" transform="translate(400.000000, 175.000000)" stroke="#000000">
                <polygon id="Path" points="0 0 352 0 352 265 0 265"></polygon>
            </g>
            <g id="Group" transform="translate(400.000000, 160.000000)" fill="#FFFFFF">
                <rect id="Rectangle" x="0" y="0" width="140.8" height="15"></rect>
            </g>
            <g id="Group" transform="translate(400.000000, 160.000000)" stroke="#000000">
                <polygon id="Path" points="0 0 140.8 0 140.8 15 0 15"></polygon>
            </g>
            <g id="Group" transform="translate(400.000000, 174.000000)" fill="#FFFFFF">
                <rect id="Rectangle" x="0" y="0" width="352" height="266"></rect>
            </g>
            <g id="Group" transform="translate(400.000000, 174.000000)" stroke="#000000">
                <polygon id="Path" points="0 0 352 0 352 266 0 266"></polygon>
            </g>
            <g id="Group" transform="translate(547.000000, 182.000000)" fill="#000000" font-family="Arial-BoldMT, Arial" font-size="13" font-weight="bold">
                <g id="repository">
                    <text>
                        <tspan x="0.4609375" y="12.5">repository</tspan>
                    </text>
                </g>
            </g>
            <g id="Group" transform="translate(199.000000, 591.000000)" fill="#C0C0C0" opacity="0.2">
                <rect id="Rectangle" x="0" y="0" width="139.418945" height="57"></rect>
            </g>
            <g id="Group" transform="translate(192.000000, 584.000000)" fill="#FFFFFF">
                <rect id="Rectangle" x="0" y="0" width="139.418945" height="57"></rect>
            </g>
            <g id="Group" transform="translate(192.000000, 584.000000)" stroke="#000000">
                <polygon id="Path" points="0 0 139.418945 0 139.418945 57 0 57"></polygon>
            </g>
            <g id="Group" transform="translate(192.000000, 608.000000)" stroke="#000000">
                <path d="M0,1 L139.418945,1" id="Path"></path>
            </g>
            <g id="Group" transform="translate(192.000000, 618.000000)" stroke="#000000">
                <path d="M0,1 L139.418945,1" id="Path"></path>
            </g>
            <g id="Group" transform="translate(222.000000, 591.000000)" fill="#000000" font-family="Arial-BoldMT, Arial" font-size="13" font-weight="bold">
                <g id="ModelFactory">
                    <text>
                        <tspan x="0.334960938" y="12.5">ModelFactory</tspan>
                    </text>
                </g>
            </g>
            <g id="Group" transform="translate(197.000000, 624.000000)">
                <g>
                    <text id="+createModel():-Model" fill="#000000" font-family="ArialMT, Arial" font-size="13" font-weight="normal">
                        <tspan x="0" y="12.5">+createModel(): Model</tspan>
                    </text>
                    <path d="M0,12.5 L130.418945,12.5" id="Path" stroke="#000000"></path>
                </g>
            </g>
            <g id="Group" transform="translate(431.000000, 223.000000)" fill="#C0C0C0" opacity="0.2">
                <rect id="Rectangle" x="0" y="0" width="132.944336" height="85"></rect>
            </g>
            <g id="Group" transform="translate(424.000000, 216.000000)" fill="#FFFFFF">
                <rect id="Rectangle" x="0" y="0" width="132.944336" height="85"></rect>
            </g>
            <g id="Group" transform="translate(424.000000, 216.000000)" stroke="#000000">
                <polygon id="Path" points="0 0 132.944336 0 132.944336 85 0 85"></polygon>
            </g>
            <g id="Group" transform="translate(424.000000, 240.000000)" stroke="#000000">
                <path d="M0,1 L132.944336,1" id="Path"></path>
            </g>
            <g id="Group" transform="translate(424.000000, 263.000000)" stroke="#000000">
                <path d="M0,1 L132.944336,1" id="Path"></path>
            </g>
            <g id="Group" transform="translate(445.000000, 223.000000)" fill="#000000" font-family="Arial-BoldMT, Arial" font-size="13" font-weight="bold">
                <g id="FileDataSource">
                    <text>
                        <tspan x="0.673583984" y="12.5">FileDataSource</tspan>
                    </text>
                </g>
            </g>
            <g id="Group" transform="translate(429.000000, 246.000000)" fill="#000000" font-family="ArialMT, Arial" font-size="13" font-weight="normal">
                <g id="+path:-String">
                    <text>
                        <tspan x="0" y="12.5">+path: String</tspan>
                    </text>
                </g>
            </g>
            <g id="Group" transform="translate(429.000000, 269.000000)" fill="#000000" font-family="ArialMT, Arial" font-size="13" font-weight="normal">
                <g id="+has_next():-Boolean">
                    <text>
                        <tspan x="0" y="12.5">+has_next(): Boolean</tspan>
                    </text>
                </g>
            </g>
            <g id="Group" transform="translate(429.000000, 284.000000)" fill="#000000" font-family="ArialMT, Arial" font-size="13" font-weight="normal">
                <g id="+next():-String">
                    <text>
                        <tspan x="0" y="12.5">+next(): String</tspan>
                    </text>
                </g>
            </g>
            <g id="Group" transform="translate(573.000000, 351.000000)" fill="#C0C0C0" opacity="0.2">
                <path d="M0.972167969,11.5 C0.972167969,5.1487248 6.12089277,0 12.472168,0 C18.8234432,0 23.972168,5.1487248 23.972168,11.5 C23.972168,17.8512752 18.8234432,23 12.472168,23 C6.12089277,23 0.972167969,17.8512752 0.972167969,11.5 Z" id="Path"></path>
            </g>
            <g id="Group" transform="translate(566.000000, 355.000000)" stroke="#000000">
                <path d="M23.5,0 C23.5,6.35127462 18.3512746,11.5 12,11.5 C5.64872538,11.5 0.5,6.35127462 0.5,0" id="Path"></path>
            </g>
            <g id="Group" transform="translate(569.000000, 347.000000)" fill="#FFFFFF">
                <path d="M0.972167969,8.5 C0.972167969,3.8055792 4.77774717,0 9.47216797,0 C14.1665888,0 17.972168,3.8055792 17.972168,8.5 C17.972168,13.1944208 14.1665888,17 9.47216797,17 C4.77774717,17 0.972167969,13.1944208 0.972167969,8.5 Z" id="Path"></path>
            </g>
            <g id="Group" transform="translate(569.000000, 347.000000)" stroke="#000000">
                <path d="M0.972167969,8.5 C0.972167969,3.8055792 4.77774717,0 9.47216797,0 C14.1665888,0 17.972168,3.8055792 17.972168,8.5 C17.972168,13.1944208 14.1665888,17 9.47216797,17 C4.77774717,17 0.972167969,13.1944208 0.972167969,8.5 Z" id="Path"></path>
            </g>
            <g id="Group" transform="translate(512.000000, 391.000000)" stroke="#000000">
                <path d="M0,1 L132.944336,1" id="Path"></path>
            </g>
            <g id="Group" transform="translate(544.000000, 374.000000)" fill="#000000" font-family="Arial-BoldMT, Arial" font-size="13" font-weight="bold">
                <g id="DataSource">
                    <text>
                        <tspan x="0.147216797" y="12.5">DataSource</tspan>
                    </text>
                </g>
            </g>
            <g id="Group" transform="translate(517.000000, 397.000000)" fill="#000000" font-family="ArialMT, Arial" font-size="13" font-weight="normal">
                <g id="+has_next():-Boolean">
                    <text>
                        <tspan x="0" y="12.5">+has_next(): Boolean</tspan>
                    </text>
                </g>
            </g>
            <g id="Group" transform="translate(517.000000, 412.000000)" fill="#000000" font-family="ArialMT, Arial" font-size="13" font-weight="normal">
                <g id="+next():-String">
                    <text>
                        <tspan x="0" y="12.5">+next(): String</tspan>
                    </text>
                </g>
            </g>
            <g id="Group" transform="translate(583.000000, 223.000000)" fill="#C0C0C0" opacity="0.2">
                <rect id="Rectangle" x="0" y="0" width="157.09082" height="85"></rect>
            </g>
            <g id="Group" transform="translate(576.000000, 216.000000)" fill="#FFFFFF">
                <rect id="Rectangle" x="0" y="0" width="157.09082" height="85"></rect>
            </g>
            <g id="Group" transform="translate(576.000000, 216.000000)" stroke="#000000">
                <polygon id="Path" points="0 0 157.09082 0 157.09082 85 0 85"></polygon>
            </g>
            <g id="Group" transform="translate(576.000000, 240.000000)" stroke="#000000">
                <path d="M0,1 L157.09082,1" id="Path"></path>
            </g>
            <g id="Group" transform="translate(576.000000, 263.000000)" stroke="#000000">
                <path d="M0,1 L157.09082,1" id="Path"></path>
            </g>
            <g id="Group" transform="translate(584.000000, 223.000000)" fill="#000000" font-family="Arial-BoldMT, Arial" font-size="13" font-weight="bold">
                <g id="InputStreamDataSource">
                    <text>
                        <tspan x="0.813232422" y="12.5">InputStreamDataSource</tspan>
                    </text>
                </g>
            </g>
            <g id="Group" transform="translate(581.000000, 246.000000)" fill="#000000" font-family="ArialMT, Arial" font-size="13" font-weight="normal">
                <g id="+stream:-Stream&lt;String&gt;">
                    <text>
                        <tspan x="0" y="12.5">+stream: Stream&lt;String&gt;</tspan>
                    </text>
                </g>
            </g>
            <g id="Group" transform="translate(581.000000, 269.000000)" fill="#000000" font-family="ArialMT, Arial" font-size="13" font-weight="normal">
                <g id="+has_next():-Boolean">
                    <text>
                        <tspan x="0" y="12.5">+has_next(): Boolean</tspan>
                    </text>
                </g>
            </g>
            <g id="Group" transform="translate(581.000000, 284.000000)" fill="#000000" font-family="ArialMT, Arial" font-size="13" font-weight="normal">
                <g id="+next():-String">
                    <text>
                        <tspan x="0" y="12.5">+next(): String</tspan>
                    </text>
                </g>
            </g>
            <g id="Group" transform="translate(520.000000, 302.000000)" stroke="#000000">
                <path d="M0,0 L46.972168,48.5888672" id="Path"></path>
            </g>
            <g id="Group" transform="translate(589.000000, 302.000000)" stroke="#000000">
                <path d="M39,0 L0.972167969,47.474384" id="Path"></path>
            </g>
            <g id="Group" transform="translate(7.000000, 167.000000)" fill="#C0C0C0" opacity="0.2">
                <rect id="Rectangle" x="0" y="0" width="150.4" height="15"></rect>
            </g>
            <g id="Group" transform="translate(7.000000, 181.000000)" fill="#C0C0C0" opacity="0.2">
                <rect id="Rectangle" x="0" y="0" width="376" height="266"></rect>
            </g>
            <g id="Group" transform="translate(0.000000, 175.000000)" fill="#FFFFFF">
                <rect id="Rectangle" x="0" y="0" width="376" height="265"></rect>
            </g>
            <g id="Group" transform="translate(0.000000, 175.000000)" stroke="#000000">
                <polygon id="Path" points="0 0 376 0 376 265 0 265"></polygon>
            </g>
            <g id="Group" transform="translate(0.000000, 160.000000)" fill="#FFFFFF">
                <rect id="Rectangle" x="0" y="0" width="150.4" height="15"></rect>
            </g>
            <g id="Group" transform="translate(0.000000, 160.000000)" stroke="#000000">
                <polygon id="Path" points="0 0 150.4 0 150.4 15 0 15"></polygon>
            </g>
            <g id="Group" transform="translate(0.000000, 174.000000)" fill="#FFFFFF">
                <rect id="Rectangle" x="0" y="0" width="376" height="266"></rect>
            </g>
            <g id="Group" transform="translate(0.000000, 174.000000)" stroke="#000000">
                <polygon id="Path" points="0 0 376 0 376 266 0 266"></polygon>
            </g>
            <g id="Group" transform="translate(179.000000, 182.000000)" fill="#000000" font-family="Arial-BoldMT, Arial" font-size="13" font-weight="bold">
                <g id="api">
                    <text>
                        <tspan x="0.325927734" y="12.5">api</tspan>
                    </text>
                </g>
            </g>
            <g id="Group" transform="translate(183.000000, 223.000000)" fill="#C0C0C0" opacity="0.2">
                <rect id="Rectangle" x="0" y="0" width="128" height="57"></rect>
            </g>
            <g id="Group" transform="translate(176.000000, 216.000000)" fill="#FFFFFF">
                <rect id="Rectangle" x="0" y="0" width="128" height="57"></rect>
            </g>
            <g id="Group" transform="translate(176.000000, 216.000000)" stroke="#000000">
                <polygon id="Path" points="0 0 128 0 128 57 0 57"></polygon>
            </g>
            <g id="Group" transform="translate(176.000000, 240.000000)" stroke="#000000">
                <path d="M0,1 L128,1" id="Path"></path>
            </g>
            <g id="Group" transform="translate(176.000000, 263.000000)" stroke="#000000">
                <path d="M0,1 L128,1" id="Path"></path>
            </g>
            <g id="Group" transform="translate(201.000000, 223.000000)" fill="#000000" font-family="Arial-BoldMT, Arial" font-size="13" font-weight="bold">
                <g id="Classification">
                    <text>
                        <tspan x="0.707763672" y="12.5">Classification</tspan>
                    </text>
                </g>
            </g>
            <g id="Group" transform="translate(181.000000, 246.000000)" fill="#000000" font-family="ArialMT, Arial" font-size="13" font-weight="normal">
                <g id="+clickbaitness:-Float">
                    <text>
                        <tspan x="0" y="12.5">+clickbaitness: Float</tspan>
                    </text>
                </g>
            </g>
            <g id="Group" transform="translate(235.000000, 311.000000)" fill="#C0C0C0" opacity="0.2">
                <path d="M0.5,11.5 C0.5,5.1487248 5.6487248,0 12,0 C18.3512752,0 23.5,5.1487248 23.5,11.5 C23.5,17.8512752 18.3512752,23 12,23 C5.6487248,23 0.5,17.8512752 0.5,11.5 Z" id="Path"></path>
            </g>
            <g id="Group" transform="translate(228.000000, 304.000000)" fill="#FFFFFF">
                <path d="M0.5,11.5 C0.5,5.1487248 5.6487248,0 12,0 C18.3512752,0 23.5,5.1487248 23.5,11.5 C23.5,17.8512752 18.3512752,23 12,23 C5.6487248,23 0.5,17.8512752 0.5,11.5 Z" id="Path"></path>
            </g>
            <g id="Group" transform="translate(228.000000, 304.000000)" stroke="#000000">
                <path d="M0.5,11.5 C0.5,5.1487248 5.6487248,0 12,0 C18.3512752,0 23.5,5.1487248 23.5,11.5 C23.5,17.8512752 18.3512752,23 12,23 C5.6487248,23 0.5,17.8512752 0.5,11.5 Z" id="Path"></path>
            </g>
            <g id="Group" transform="translate(128.000000, 351.000000)" stroke="#000000">
                <path d="M0,1 L224,1" id="Path"></path>
            </g>
            <g id="Group" transform="translate(204.000000, 334.000000)" fill="#000000" font-family="Arial-BoldMT, Arial" font-size="13" font-weight="bold">
                <g id="Classificator">
                    <text>
                        <tspan x="0.602294922" y="12.5">Classificator</tspan>
                    </text>
                </g>
            </g>
            <g id="Group" transform="translate(133.000000, 357.000000)" fill="#000000" font-family="ArialMT, Arial" font-size="13" font-weight="normal">
                <g>
                    <text id="+process(data_source:-DataSource,">
                        <tspan x="0" y="12.5">+process(data_source: DataSource,</tspan>
                    </text>
                    <text id="callback:-Function&lt;Classification&gt;)">
                        <tspan x="0" y="25.5">callback: Function&lt;Classification&gt;)</tspan>
                    </text>
                </g>
            </g>
            <g id="Group" transform="translate(199.000000, 495.000000)" fill="#C0C0C0" opacity="0.2">
                <rect id="Rectangle" x="0" y="0" width="421.23584" height="70"></rect>
            </g>
            <g id="Group" transform="translate(192.000000, 488.000000)" fill="#FFFFFF">
                <rect id="Rectangle" x="0" y="0" width="421.23584" height="70"></rect>
            </g>
            <g id="Group" transform="translate(192.000000, 488.000000)" stroke="#000000">
                <polygon id="Path" points="0 0 421.23584 0 421.23584 70 0 70"></polygon>
            </g>
            <g id="Group" transform="translate(192.000000, 512.000000)" stroke="#000000">
                <path d="M0,1 L421.23584,1" id="Path"></path>
            </g>
            <g id="Group" transform="translate(192.000000, 535.000000)" stroke="#000000">
                <path d="M0,1 L421.23584,1" id="Path"></path>
            </g>
            <g id="Group" transform="translate(349.000000, 495.000000)" fill="#000000" font-family="Arial-BoldMT, Arial" font-size="13" font-weight="bold">
                <g id="ClassificatorLSTM">
                    <text>
                        <tspan x="0.884765625" y="12.5">ClassificatorLSTM</tspan>
                    </text>
                </g>
            </g>
            <g id="Group" transform="translate(197.000000, 518.000000)" fill="#000000" font-family="ArialMT, Arial" font-size="13" font-weight="normal">
                <g id="-model:-Model-{readOnly}">
                    <text>
                        <tspan x="0" y="12.5">-model: Model {readOnly}</tspan>
                    </text>
                </g>
            </g>
            <g id="Group" transform="translate(197.000000, 541.000000)" fill="#000000" font-family="ArialMT, Arial" font-size="13" font-weight="normal">
                <g id="+process(data_source:-DataSource,-callback:-Function&lt;Classification&gt;)">
                    <text>
                        <tspan x="0" y="12.5">+process(data_source: DataSource, callback: Function&lt;Classification&gt;)</tspan>
                    </text>
                </g>
            </g>
            <g id="Group" transform="translate(239.000000, 327.000000)" stroke="#000000">
                <path d="M1,161 L1,0" id="Path"></path>
            </g>
            <g id="Group" transform="translate(23.000000, 223.000000)" fill="#C0C0C0" opacity="0.2">
                <rect id="Rectangle" x="0" y="0" width="136" height="70"></rect>
            </g>
            <g id="Group" transform="translate(16.000000, 216.000000)" fill="#FFFFFF">
                <rect id="Rectangle" x="0" y="0" width="136" height="70"></rect>
            </g>
            <g id="Group" transform="translate(16.000000, 216.000000)" stroke="#000000">
                <polygon id="Path" points="0 0 136 0 136 70 0 70"></polygon>
            </g>
            <g id="Group" transform="translate(16.000000, 240.000000)" stroke="#000000">
                <path d="M0,1 L136,1" id="Path"></path>
            </g>
            <g id="Group" transform="translate(16.000000, 250.000000)" stroke="#000000">
                <path d="M0,1 L136,1" id="Path"></path>
            </g>
            <g id="Group" transform="translate(28.000000, 223.000000)" fill="#000000" font-family="Arial-BoldMT, Arial" font-size="13" font-weight="bold">
                <g id="ClassificatorBuilder">
                    <text>
                        <tspan x="0.369140625" y="12.5">ClassificatorBuilder</tspan>
                    </text>
                </g>
            </g>
            <g id="Group" transform="translate(21.000000, 256.000000)">
                <g>
                    <text id="+createClassificator():" fill="#000000" font-family="ArialMT, Arial" font-size="13" font-weight="normal">
                        <tspan x="0" y="12.5">+createClassificator():</tspan>
                    </text>
                    <path d="M0,12.5 L126.788086,12.5" id="Path" stroke="#000000"></path>
                    <text id="Classificator" fill="#000000" font-family="ArialMT, Arial" font-size="13" font-weight="normal">
                        <tspan x="0" y="25.5">Classificator</tspan>
                    </text>
                    <path d="M0,25.5 L70.7954102,25.5" id="Path" stroke="#000000"></path>
                </g>
            </g>
            <g id="Group" transform="translate(85.000000, 286.000000)" stroke="#000000" stroke-dasharray="3">
                <path d="M0,0 L0,226 L107,226" id="Path"></path>
            </g>
            <g id="Group" transform="translate(181.000000, 507.000000)" stroke="#000000">
                <polyline id="Path" points="0.837325142 9.20951776 11 5 0.837325142 0.790482244"></polyline>
            </g>
            <g id="Group" transform="translate(25.000000, 295.000000)" fill="#000000" font-family="ArialMT, Arial" font-size="13" font-weight="normal">
                <g id="creates">
                    <text>
                        <tspan x="0.295898438" y="12.5">creates</tspan>
                    </text>
                </g>
            </g>
            <g id="Group" transform="translate(239.000000, 274.000000)" stroke="#000000" stroke-dasharray="3">
                <path d="M1,29 L1,0" id="Path"></path>
            </g>
            <g id="Group" transform="translate(235.000000, 274.000000)" stroke="#000000">
                <polyline id="Path" points="9.20951776 10.1626749 5 0 0.790482244 10.1626749"></polyline>
            </g>
            <g id="Group" transform="translate(257.000000, 287.000000)" fill="#000000" font-family="ArialMT, Arial" font-size="13" font-weight="normal">
                <g id="creates">
                    <text>
                        <tspan x="0.295898438" y="12.5">creates</tspan>
                    </text>
                </g>
            </g>
            <g id="Group" transform="translate(577.000000, 367.000000)" stroke="#000000">
                <path d="M1,121 L1,0" id="Path"></path>
            </g>
            <g id="Group" transform="translate(331.000000, 558.000000)" stroke="#000000" stroke-dasharray="3">
                <path d="M27,0 L27,54 L0,54" id="Path"></path>
            </g>
            <g id="Group" transform="translate(331.000000, 607.000000)" stroke="#000000">
                <polyline id="Path" points="10.1626749 0.790482244 0 5 10.1626749 9.20951776"></polyline>
            </g>
            <g id="Group" transform="translate(7.000000, 7.000000)" fill="#C0C0C0" opacity="0.2">
                <rect id="Rectangle" x="0" y="0" width="150.4" height="15"></rect>
            </g>
            <g id="Group" transform="translate(7.000000, 21.000000)" fill="#C0C0C0" opacity="0.2">
                <rect id="Rectangle" x="0" y="0" width="376" height="106"></rect>
            </g>
            <g id="Group" transform="translate(0.000000, 15.000000)" fill="#FFFFFF">
                <rect id="Rectangle" x="0" y="0" width="376" height="105"></rect>
            </g>
            <g id="Group" transform="translate(0.000000, 15.000000)" stroke="#000000">
                <polygon id="Path" points="0 0 376 0 376 105 0 105"></polygon>
            </g>
            <g id="Group" fill="#FFFFFF">
                <rect id="Rectangle" x="0" y="0" width="150.4" height="15"></rect>
            </g>
            <g id="Group" stroke="#000000">
                <polygon id="Path" points="0 0 150.4 0 150.4 15 0 15"></polygon>
            </g>
            <g id="Group" transform="translate(0.000000, 14.000000)" fill="#FFFFFF">
                <rect id="Rectangle" x="0" y="0" width="376" height="106"></rect>
            </g>
            <g id="Group" transform="translate(0.000000, 14.000000)" stroke="#000000">
                <polygon id="Path" points="0 0 376 0 376 106 0 106"></polygon>
            </g>
            <g id="Group" transform="translate(146.000000, 22.000000)" fill="#000000" font-family="Arial-BoldMT, Arial" font-size="13" font-weight="bold">
                <g id="view-graphical">
                    <text>
                        <tspan x="0.454589844" y="12.5">view-graphical</tspan>
                    </text>
                </g>
            </g>
            <g id="Group" transform="translate(407.000000, 7.000000)" fill="#C0C0C0" opacity="0.2">
                <rect id="Rectangle" x="0" y="0" width="140.8" height="15"></rect>
            </g>
            <g id="Group" transform="translate(407.000000, 21.000000)" fill="#C0C0C0" opacity="0.2">
                <rect id="Rectangle" x="0" y="0" width="352" height="106"></rect>
            </g>
            <g id="Group" transform="translate(400.000000, 15.000000)" fill="#FFFFFF">
                <rect id="Rectangle" x="0" y="0" width="352" height="105"></rect>
            </g>
            <g id="Group" transform="translate(400.000000, 15.000000)" stroke="#000000">
                <polygon id="Path" points="0 0 352 0 352 105 0 105"></polygon>
            </g>
            <g id="Group" transform="translate(400.000000, 0.000000)" fill="#FFFFFF">
                <rect id="Rectangle" x="0" y="0" width="140.8" height="15"></rect>
            </g>
            <g id="Group" transform="translate(400.000000, 0.000000)" stroke="#000000">
                <polygon id="Path" points="0 0 140.8 0 140.8 15 0 15"></polygon>
            </g>
            <g id="Group" transform="translate(400.000000, 14.000000)" fill="#FFFFFF">
                <rect id="Rectangle" x="0" y="0" width="352" height="106"></rect>
            </g>
            <g id="Group" transform="translate(400.000000, 14.000000)" stroke="#000000">
                <polygon id="Path" points="0 0 352 0 352 106 0 106"></polygon>
            </g>
            <g id="Group" transform="translate(538.000000, 22.000000)" fill="#000000" font-family="Arial-BoldMT, Arial" font-size="13" font-weight="bold">
                <g id="view-console">
                    <text>
                        <tspan x="0.428222656" y="12.5">view-console</tspan>
                    </text>
                </g>
            </g>
            <g id="Group" transform="translate(184.000000, 120.000000)" stroke="#000000" stroke-dasharray="3">
                <path d="M256,0 L256,16 L0,16 L0,40" id="Path"></path>
            </g>
            <g id="Group" transform="translate(179.000000, 149.000000)" stroke="#000000">
                <polyline id="Path" points="0.790482244 0.837325142 5 11 9.20951776 0.837325142"></polyline>
            </g>
            <g id="Group" transform="translate(167.000000, 120.000000)" stroke="#000000" stroke-dasharray="3">
                <path d="M1,0 L1,40" id="Path"></path>
            </g>
            <g id="Group" transform="translate(163.000000, 149.000000)" stroke="#000000">
                <polyline id="Path" points="0.790482244 0.837325142 5 11 9.20951776 0.837325142"></polyline>
            </g>
            <g id="Group" transform="translate(336.000000, 120.000000)" stroke="#000000" stroke-dasharray="3">
                <path d="M0,0 L0,24 L240,24 L240,40" id="Path"></path>
            </g>
            <g id="Group" transform="translate(571.000000, 149.000000)" stroke="#000000">
                <polyline id="Path" points="0.790482244 0.837325142 5 11 9.20951776 0.837325142"></polyline>
            </g>
            <g id="Group" transform="translate(591.000000, 120.000000)" stroke="#000000" stroke-dasharray="3">
                <path d="M1,0 L1,40" id="Path"></path>
            </g>
            <g id="Group" transform="translate(587.000000, 149.000000)" stroke="#000000">
                <polyline id="Path" points="0.790482244 0.837325142 5 11 9.20951776 0.837325142"></polyline>
            </g>
            <g id="Group" transform="translate(431.000000, 55.000000)" fill="#C0C0C0" opacity="0.2">
                <rect id="Rectangle" x="0" y="0" width="72.559082" height="44"></rect>
            </g>
            <g id="Group" transform="translate(424.000000, 48.000000)" fill="#FFFFFF">
                <rect id="Rectangle" x="0" y="0" width="72.559082" height="44"></rect>
            </g>
            <g id="Group" transform="translate(424.000000, 48.000000)" stroke="#000000">
                <polygon id="Path" points="0 0 72.559082 0 72.559082 44 0 44"></polygon>
            </g>
            <g id="Group" transform="translate(424.000000, 72.000000)" stroke="#000000">
                <path d="M0,1 L72.559082,1" id="Path"></path>
            </g>
            <g id="Group" transform="translate(424.000000, 82.000000)" stroke="#000000">
                <path d="M0,1 L72.559082,1" id="Path"></path>
            </g>
            <g id="Group" transform="translate(446.000000, 55.000000)" fill="#000000" font-family="Arial-BoldMT, Arial" font-size="13" font-weight="bold">
                <g id="Main">
                    <text>
                        <tspan x="0.190917969" y="12.5">Main</tspan>
                    </text>
                </g>
            </g>
            <g id="Group" transform="translate(567.000000, 55.000000)" fill="#C0C0C0" opacity="0.2">
                <rect id="Rectangle" x="0" y="0" width="131.078125" height="44"></rect>
            </g>
            <g id="Group" transform="translate(560.000000, 48.000000)" fill="#FFFFFF">
                <rect id="Rectangle" x="0" y="0" width="131.078125" height="44"></rect>
            </g>
            <g id="Group" transform="translate(560.000000, 48.000000)" stroke="#000000">
                <polygon id="Path" points="0 0 131.078125 0 131.078125 44 0 44"></polygon>
            </g>
            <g id="Group" transform="translate(560.000000, 72.000000)" stroke="#000000">
                <path d="M0,1 L131.078125,1" id="Path"></path>
            </g>
            <g id="Group" transform="translate(560.000000, 82.000000)" stroke="#000000">
                <path d="M0,1 L131.078125,1" id="Path"></path>
            </g>
            <g id="Group" transform="translate(570.000000, 55.000000)" fill="#000000" font-family="Arial-BoldMT, Arial" font-size="13" font-weight="bold">
                <g id="ComandInterpreter">
                    <text>
                        <tspan x="0.984130859" y="12.5">ComandInterpreter</tspan>
                    </text>
                </g>
            </g>
            <g id="Group" transform="translate(498.000000, 69.000000)" stroke="#000000" stroke-dasharray="3">
                <path d="M0,1 L61,1" id="Path"></path>
            </g>
            <g id="Group" transform="translate(548.000000, 65.000000)" stroke="#000000">
                <polyline id="Path" points="0.837325142 9.20951776 11 5 0.837325142 0.790482244"></polyline>
            </g>
            <g id="Group" transform="translate(514.000000, 49.000000)" fill="#000000" font-family="ArialMT, Arial" font-size="13" font-weight="normal">
                <g id="uses">
                    <text>
                        <tspan x="0.295898438" y="12.5">uses</tspan>
                    </text>
                </g>
            </g>
            <g id="Group" transform="translate(23.000000, 39.000000)" fill="#C0C0C0" opacity="0.2">
                <rect id="Rectangle" x="0" y="0" width="50.9199219" height="44"></rect>
            </g>
            <g id="Group" transform="translate(16.000000, 32.000000)" fill="#FFFFFF">
                <rect id="Rectangle" x="0" y="0" width="50.9199219" height="44"></rect>
            </g>
            <g id="Group" transform="translate(16.000000, 32.000000)" stroke="#000000">
                <polygon id="Path" points="0 0 50.9199219 0 50.9199219 44 0 44"></polygon>
            </g>
            <g id="Group" transform="translate(16.000000, 56.000000)" stroke="#000000">
                <path d="M0,1 L50.9199219,1" id="Path"></path>
            </g>
            <g id="Group" transform="translate(16.000000, 66.000000)" stroke="#000000">
                <path d="M0,1 L50.9199219,1" id="Path"></path>
            </g>
            <g id="Group" transform="translate(27.000000, 39.000000)" fill="#000000" font-family="Arial-BoldMT, Arial" font-size="13" font-weight="bold">
                <g id="Main">
                    <text>
                        <tspan x="0.371337891" y="12.5">Main</tspan>
                    </text>
                </g>
            </g>
            <g id="Group" transform="translate(639.000000, 92.000000)" stroke="#000000" stroke-dasharray="3">
                <path d="M1,0 L1,124" id="Path"></path>
            </g>
            <g id="Group" transform="translate(635.000000, 205.000000)" stroke="#000000">
                <polyline id="Path" points="0.790482244 0.837325142 5 11 9.20951776 0.837325142"></polyline>
            </g>
            <g id="Group" transform="translate(651.000000, 144.000000)" fill="#000000" font-family="ArialMT, Arial" font-size="13" font-weight="normal">
                <g id="uses">
                    <text>
                        <tspan x="0.295898438" y="12.5">uses</tspan>
                    </text>
                </g>
            </g>
            <g id="Group" transform="translate(103.000000, 55.000000)" fill="#C0C0C0" opacity="0.2">
                <rect id="Rectangle" x="0" y="0" width="122.915039" height="44"></rect>
            </g>
            <g id="Group" transform="translate(96.000000, 48.000000)" fill="#FFFFFF">
                <rect id="Rectangle" x="0" y="0" width="122.915039" height="44"></rect>
            </g>
            <g id="Group" transform="translate(96.000000, 48.000000)" stroke="#000000">
                <polygon id="Path" points="0 0 122.915039 0 122.915039 44 0 44"></polygon>
            </g>
            <g id="Group" transform="translate(96.000000, 72.000000)" stroke="#000000">
                <path d="M0,1 L122.915039,1" id="Path"></path>
            </g>
            <g id="Group" transform="translate(96.000000, 82.000000)" stroke="#000000">
                <path d="M0,1 L122.915039,1" id="Path"></path>
            </g>
            <g id="Group" transform="translate(105.000000, 55.000000)" fill="#000000" font-family="Arial-BoldMT, Arial" font-size="13" font-weight="bold">
                <g id="ClassificationView">
                    <text>
                        <tspan x="0.194091797" y="12.5">ClassificationView</tspan>
                    </text>
                </g>
            </g>
            <g id="Group" transform="translate(247.000000, 55.000000)" fill="#C0C0C0" opacity="0.2">
                <rect id="Rectangle" x="0" y="0" width="110.638672" height="44"></rect>
            </g>
            <g id="Group" transform="translate(240.000000, 48.000000)" fill="#FFFFFF">
                <rect id="Rectangle" x="0" y="0" width="110.638672" height="44"></rect>
            </g>
            <g id="Group" transform="translate(240.000000, 48.000000)" stroke="#000000">
                <polygon id="Path" points="0 0 110.638672 0 110.638672 44 0 44"></polygon>
            </g>
            <g id="Group" transform="translate(240.000000, 72.000000)" stroke="#000000">
                <path d="M0,1 L110.638672,1" id="Path"></path>
            </g>
            <g id="Group" transform="translate(240.000000, 82.000000)" stroke="#000000">
                <path d="M0,1 L110.638672,1" id="Path"></path>
            </g>
            <g id="Group" transform="translate(247.000000, 55.000000)" fill="#000000" font-family="Arial-BoldMT, Arial" font-size="13" font-weight="bold">
                <g id="DataSourceView">
                    <text>
                        <tspan x="0.0231933594" y="12.5">DataSourceView</tspan>
                    </text>
                </g>
            </g>
            <g id="Group" transform="translate(41.000000, 76.000000)" stroke="#000000">
                <polyline id="Path" points="127 16 127 36 0 36 0 0"></polyline>
            </g>
            <g id="Group" transform="translate(36.000000, 76.000000)" fill="#000000">
                <polyline id="Path" points="9.20951776 10.1626749 5 0 0.790482244 10.1626749 5 22"></polyline>
            </g>
            <g id="Group" transform="translate(36.000000, 76.000000)" stroke="#000000">
                <polyline id="Path" points="9.20951776 10.1626749 5 0 0.790482244 10.1626749 5 22 9.20951776 10.1626749"></polyline>
            </g>
            <g id="Group" transform="translate(41.000000, 76.000000)" stroke="#000000">
                <polyline id="Path" points="255 16 255 36 0 36 0 0"></polyline>
            </g>
            <g id="Group" transform="translate(36.000000, 76.000000)" fill="#000000">
                <polyline id="Path" points="9.20951776 10.1626749 5 0 0.790482244 10.1626749 5 22"></polyline>
            </g>
            <g id="Group" transform="translate(36.000000, 76.000000)" stroke="#000000">
                <polyline id="Path" points="9.20951776 10.1626749 5 0 0.790482244 10.1626749 5 22 9.20951776 10.1626749"></polyline>
            </g>
        </g>
    </g>
</svg>